<svg xmlns="http://www.w3.org/2000/svg" version="1.1" xmlns:xlink="http://www.w3.org/1999/xlink" xmlns:svgjs="http://svgjs.dev/svgjs" width="100%" height="100%" viewBox="0 0 1000 600"><rect width="1000" height="600" x="0" y="0" fill="#050505"/><g><rect width="333.3333333333333" height="333.3333333333333" rx="13.333333333333334" ry="13.333333333333334" y="167.86842281609913" fill="#616161" transform="matrix(0.8582440312826051,0,0,0.858244031282605,0,12.887242589707725)" x="145.64617919921875"/><path d="M273.48690755872315 347.5014939910076L265.2528772538253 351.1057136618347L265.2528772538253 397.2866096067421Q265.2528772538253 402.7954982093072 260.8281848124034 406.16529708853585Q256.40349237098144 409.5350959677645 250.48436738311892 409.5350959677645L250.48436738311892 409.5350959677645L218.83756051731945 409.5350959677645L214.20774988324877 271.1389211277914Q214.41286807589748 266.0695715094735 217.25522017402946 262.90489082289355Q220.12687487111128 259.74021013631364 224.55156731253322 259.74021013631364L224.55156731253322 259.74021013631364L266.7473098002659 259.74021013631364L266.7473098002659 268.5895950191575L262.93797193679 291.5921351947618L253.64904806969886 291.5921351947618L253.64904806969886 271.3440393204401L230.0311533161485 276.61850713140666L233.60607038802587 385.9172012142142Q233.60607038802587 387.3823311617049 235.1005029344664 388.5544351196975Q236.56563288195713 389.69723647874025 238.06006542839765 389.69723647874025L238.06006542839765 389.69723647874025L247.7592256807862 389.69723647874025Q249.2243556282769 389.69723647874025 250.60157777891817 388.96467150499484Q251.97879992955944 388.23210653124954 251.97879992955944 387.1772129690562L251.97879992955944 387.1772129690562L251.97879992955944 337.15767656172306L273.48690755872315 339.26746368610975L273.48690755872315 347.5014939910076ZM288.0502992367809 409.5350959677645L286.9954056745876 398.13638497628676L310.84772121973646 397.2866096067421L314.8328746769112 277.0287435167041L288.4605356220783 278.933412448442L286.35074849769165 267.1244650716668L330.89069890140945 259.53509194366495L327.9311364074782 396.67125502879605L347.76899589650253 396.0265978519001L346.91922052695793 409.5350959677645L288.0502992367809 409.5350959677645ZM410.41795245120557 409.5350959677645L394.5945490183058 409.5350959677645L396.05967896579654 367.33935348003183L359.7830614659264 367.33935348003183L356.82349897199515 358.48996859718795L388.6754240304433 259.74021013631364L410.41795245120557 259.74021013631364L410.41795245120557 409.5350959677645ZM373.0864413891421 355.7355242959054L393.7447736487612 353.42061897887004L397.9643478975345 270.6993821435442L396.90945433534114 270.6993821435442L373.0864413891421 355.7355242959054Z " fill="#050505" transform="matrix(0.8582440312826051,0,0,0.858244031282605,0,12.887242589707725)"/><path d="M619.9700851573143 345.0946633058363L611.9613444771574 348.60026865693703L611.9613444771574 393.5176185214475Q611.9613444771574 398.8757795458942 607.6577151436921 402.1533780448908Q603.3540858102269 405.4309765438875 597.5969127945981 405.4309765438875L597.5969127945981 405.4309765438875L566.8159877605427 405.4309765438875L562.3128524314865 270.82143123292116Q562.5123584270775 265.89078305616965 565.27694150884 262.81269055276414Q568.0700254471153 259.7345980493586 572.3736547805804 259.7345980493586L572.3736547805804 259.7345980493586L613.414888159321 259.7345980493586L613.414888159321 268.3418567162889L609.7097768126291 290.7150290790051L600.6750052980037 290.7150290790051L600.6750052980037 271.02093722851225L577.7033149485142 276.1510914008548L581.1804194431019 382.459286194398Q581.1804194431019 383.8843290200487 582.6339631252656 385.0243632805693Q584.0590059509163 386.13589668457684 585.5125496330801 386.13589668457684L585.5125496330801 386.13589668457684L594.9463331388878 386.13589668457684Q596.3713759645385 386.13589668457684 597.7109162206502 385.42337527175147Q599.0504564767618 384.71085385892616 599.0504564767618 383.6848230244576L599.0504564767618 383.6848230244576L599.0504564767618 335.0338609567423L619.9700851573143 337.0859226256793L619.9700851573143 345.0946633058363ZM637.412609343279 261.98616571388675Q637.412609343279 260.9601348794182 645.8203620146182 260.3616168926449Q654.2566155424704 259.7345980493586 662.4648622182185 259.7345980493586L662.4648622182185 259.7345980493586L671.27162688074 259.7345980493586Q674.5492253797366 259.7345980493586 676.6012870486736 262.1856717094778Q678.6533487176107 264.66524622611007 678.8813555697147 268.569863568393L678.8813555697147 268.569863568393L680.9334172386518 327.65213911987155L671.6991397284352 339.7650031379026L688.1156330799314 400.92784121483123L684.2110157376485 405.4309765438875L672.0981517196174 405.4309765438875L661.6383373793411 341.61755881124856L651.1785230390649 342.64358964571704L646.8463928490867 405.4309765438875L637.412609343279 405.4309765438875L637.412609343279 261.98616571388675ZM650.3519982001875 327.25312712868936L665.7424607172152 326.42660228981197Q666.9679975472748 326.42660228981197 666.9679975472748 325.20106545975233L666.9679975472748 325.20106545975233L666.9679975472748 274.09902973191777L663.8899050438692 271.02093722851225L649.7249793569013 272.445980054163L650.3519982001875 327.25312712868936ZM704.5321264314276 261.7866597182956L719.6945820963512 261.7866597182956L715.3909527628861 392.7195945390831L732.6339709532597 391.4655568525105L732.6339709532597 264.4657402305189L746.9984026358188 265.26376421288336L746.9984026358188 409.53509988176154L699.8009842502672 409.53509988176154L704.5321264314276 261.7866597182956ZM804.2566233704645 330.7302316232771Q808.3607467083385 331.7562624577456 812.5503726157517 336.28789864331486Q816.7684993796777 340.7910339723711 816.7684993796777 347.57423782246855L816.7684993796777 347.57423782246855L812.6643760418037 399.2747915370764Q812.6643760418037 402.9799028837682 805.7956696221672 404.2054397138279Q798.9269632025308 405.4309765438875 793.169790186902 405.4309765438875L793.169790186902 405.4309765438875L765.267451660661 405.4309765438875L765.267451660661 259.7345980493586L792.5427713436156 259.7345980493586Q799.7249871848952 259.7345980493586 806.1946816133494 263.21170254394633Q812.6643760418037 266.71730789504704 812.6643760418037 272.445980054163L812.6643760418037 272.445980054163L812.6643760418037 313.7152202850076L804.2566233704645 330.7302316232771ZM778.1783396610565 322.3224789519379Q778.1783396610565 323.97552862969275 780.6579141776887 323.97552862969275L780.6579141776887 323.97552862969275L795.4213578514301 323.97552862969275Q796.0483766947164 323.97552862969275 796.8749015335939 323.1490037908153L796.8749015335939 323.1490037908153Q797.0744075291849 322.9494977952242 797.2739135247759 322.1229729563468L797.2739135247759 322.1229729563468L799.1264691981219 273.0729988974493Q799.1264691981219 272.24647405857183 796.2478826903075 272.24647405857183L796.2478826903075 272.24647405857183L778.1783396610565 273.0729988974493L778.1783396610565 322.3224789519379ZM782.9094818422168 393.9451313691427Q799.7249871848952 387.78894636233167 799.7249871848952 382.85829818558017L799.7249871848952 382.85829818558017Q799.7249871848952 381.6327613555206 799.325975193713 381.6327613555206L799.325975193713 381.6327613555206L799.325975193713 339.56549714231153Q799.9529940369994 339.13798429461633 799.9529940369994 338.9384782990252L799.9529940369994 338.9384782990252Q799.9529940369994 338.3399603122519 798.4994503548356 338.3399603122519L798.4994503548356 338.3399603122519L782.9094818422168 336.28789864331486Q782.2824629989304 336.28789864331486 781.5699415861052 336.68691063449705Q780.8574201732798 337.0859226256793 780.6579141776887 337.5134354733745L780.6579141776887 337.5134354733745L780.6579141776887 393.3181125258564L782.9094818422168 393.9451313691427ZM867.4430222598171 259.7345980493586L883.2609976245401 266.28979504735184L883.2609976245401 393.9451313691427Q883.2609976245401 400.69983436272713 878.9573682910749 403.0654054533073Q874.6252381010967 405.4309765438875 871.148133606509 405.4309765438875L871.148133606509 405.4309765438875L836.6620972257617 405.4309765438875L836.6620972257617 393.9451313691427L837.9161349123343 388.18795835351386L833.5840047223562 259.7345980493586L867.4430222598171 259.7345980493586ZM859.6622884317642 391.2660508569194Q862.7403809351697 391.2660508569194 864.3649297564116 388.81497719680016Q866.0179794341664 386.33540268016793 866.4169914253487 378.554668852115L866.4169914253487 378.554668852115L870.5211147632226 274.49804172309996Q870.5211147632226 273.2725048930404 870.1221027720404 272.9589954713972Q869.7230907808582 272.67398690626703 868.6970599463897 272.67398690626703L868.6970599463897 272.67398690626703L853.078590577258 272.67398690626703Q851.254535760425 272.67398690626703 851.254535760425 274.49804172309996L851.254535760425 274.49804172309996L851.254535760425 389.41349518357345Q851.254535760425 391.2660508569194 853.078590577258 391.2660508569194L853.078590577258 391.2660508569194L859.6622884317642 391.2660508569194ZM900.5040158149136 405.4309765438875L899.4779849804452 394.3441433603249L922.6491813255257 393.5176185214475L926.5537986678087 276.550103392037L900.9030278060959 278.4026590653829L898.8509661371588 266.9168138906382L942.1437671804274 259.53509205376747L939.265180672613 392.9191005346742L958.5602605319236 392.2920816913879L957.7337356930464 405.4309765438875L900.5040158149136 405.4309765438875ZM1019.5235926132611 405.4309765438875L1004.1331300962336 405.4309765438875L1005.5581729218842 364.3897431651469L970.2741125587726 364.3897431651469L967.3955260509581 355.7824844982166L998.3759570806046 259.7345980493586L1019.5235926132611 259.7345980493586L1019.5235926132611 405.4309765438875ZM983.185000559168 353.1034039859933L1003.3066052573561 350.85183632146516L1007.4107285952302 270.3939183852259L1006.3846977607616 270.3939183852259L983.185000559168 353.1034039859933Z " fill="#616161" transform="matrix(0.8582440312826051,0,0,0.858244031282605,0,12.887242589707725)"/></g></svg>